<svg width="136" height="136" viewBox="0 0 136 136" fill="none" xmlns="http://www.w3.org/2000/svg">
<path d="M8 68C8 34.8629 34.8629 8 68 8V8C101.137 8 128 34.8629 128 68V68C128 101.137 101.137 128 68 128V128C34.8629 128 8 101.137 8 68V68Z" fill="#1877F2"/>
<path d="M91.3555 85.3438L94.0156 68H77.375V56.75C77.375 52.0039 79.6953 47.375 87.1484 47.375H94.7188V32.6094C94.7188 32.6094 87.8516 31.4375 81.2891 31.4375C67.5781 31.4375 58.625 39.7461 58.625 54.7813V68H43.3906V85.3438H58.625V127.273C61.6836 127.754 64.8125 128 68 128C71.1875 128 74.3164 127.754 77.375 127.273V85.3438H91.3555Z" fill="white"/>
<path d="M68 120C39.2812 120 16 96.7188 16 68H0C0 105.555 30.4446 136 68 136V120ZM120 68C120 96.7188 96.7188 120 68 120V136C105.555 136 136 105.555 136 68H120ZM68 16C96.7188 16 120 39.2812 120 68H136C136 30.4446 105.555 0 68 0V16ZM68 0C30.4446 0 0 30.4446 0 68H16C16 39.2812 39.2812 16 68 16V0Z" fill="black"/>
</svg>
